<svg width="32" height="32" viewBox="0 0 32 32" fill="none" xmlns="http://www.w3.org/2000/svg">
<path d="M12.3201 4.80005C11.1172 4.79969 9.93169 5.08792 8.8632 5.64055C7.79471 6.19317 6.87438 6.99407 6.17948 7.976C5.48458 8.95793 5.03539 10.0922 4.86961 11.2837C4.70383 12.4752 4.8263 13.689 5.22674 14.8234C5.62718 15.9577 6.29391 16.9794 7.17095 17.8027C8.048 18.6261 9.10976 19.227 10.2671 19.555C11.4245 19.8831 12.6436 19.9287 13.8222 19.688C15.0009 19.4474 16.1046 18.9275 17.0407 18.172L25.8344 26.9657C25.9087 27.04 25.9969 27.0989 26.094 27.1392C26.191 27.1794 26.295 27.2 26.4001 27.2C26.5052 27.2 26.6092 27.1794 26.7062 27.1392C26.8033 27.0989 26.8915 27.04 26.9658 26.9657C27.0401 26.8914 27.099 26.8032 27.1392 26.7062C27.1794 26.6091 27.2001 26.5051 27.2001 26.4C27.2001 26.295 27.1794 26.191 27.1392 26.0939C27.099 25.9968 27.0401 25.9086 26.9658 25.8343L18.1721 17.0406C19.0634 15.9363 19.624 14.6023 19.7891 13.1928C19.9541 11.7833 19.7169 10.3559 19.1048 9.07557C18.4927 7.79524 17.5307 6.71428 16.3301 5.95768C15.1295 5.20109 13.7392 4.79974 12.3201 4.80005ZM16.5061 16.5061C15.5377 17.4745 14.2634 18.0771 12.9004 18.2113C11.5375 18.3455 10.1701 18.003 9.0314 17.2421C7.89267 16.4811 7.05301 15.3489 6.65547 14.0383C6.25793 12.7277 6.32713 11.3199 6.85125 10.0546C7.37538 8.78926 8.32202 7.74484 9.52987 7.09925C10.7377 6.45366 12.1321 6.24684 13.4753 6.51404C14.8185 6.78124 16.0276 7.50592 16.8964 8.56461C17.7652 9.6233 18.2401 10.9505 18.2401 12.32C18.2413 13.0976 18.0887 13.8678 17.7911 14.5862C17.4935 15.3046 17.0568 15.9571 16.5061 16.5061Z" fill="#071A33"/>
</svg>
