<svg width="22" height="23" viewBox="0 0 22 23" fill="none" xmlns="http://www.w3.org/2000/svg">
<path d="M4.64609 22.5825H17.4289C18.4788 22.5824 19.4856 22.1549 20.228 21.394C20.9703 20.6331 21.3874 19.601 21.3875 18.5249V7.66875C21.3875 7.46486 21.3085 7.26933 21.1678 7.12516C21.0272 6.98099 20.8364 6.9 20.6375 6.9H17.1875V4.60605C17.1874 3.58338 16.7911 2.60263 16.0856 1.87949C15.3801 1.15636 14.4232 0.750074 13.4255 0.75H8.6495C7.65178 0.750074 6.69494 1.15636 5.98944 1.87949C5.28395 2.60263 4.88757 3.58338 4.8875 4.60605V6.9H1.4375C1.23859 6.9 1.04782 6.98099 0.90717 7.12516C0.766518 7.26933 0.6875 7.46486 0.6875 7.66875V18.5249C0.687581 19.601 1.10467 20.6331 1.84703 21.394C2.5894 22.1549 3.59623 22.5824 4.64609 22.5825ZM6.3875 4.60605C6.38751 3.99113 6.62583 3.40141 7.05003 2.9666C7.47424 2.53178 8.04958 2.28751 8.6495 2.2875H13.4255C14.0254 2.28751 14.6008 2.53178 15.025 2.9666C15.4492 3.40141 15.6875 3.99113 15.6875 4.60605V6.9H6.3875V4.60605ZM2.1875 8.4375H4.8875V10.7438C4.8875 10.9476 4.96652 11.1432 5.10717 11.2873C5.24782 11.4315 5.43859 11.5125 5.6375 11.5125C5.83641 11.5125 6.02718 11.4315 6.16783 11.2873C6.30848 11.1432 6.3875 10.9476 6.3875 10.7438V8.4375H15.6875V10.7438C15.6875 10.9476 15.7665 11.1432 15.9072 11.2873C16.0478 11.4315 16.2386 11.5125 16.4375 11.5125C16.6364 11.5125 16.8272 11.4315 16.9678 11.2873C17.1085 11.1432 17.1875 10.9476 17.1875 10.7438V8.4375H19.8875V18.5249C19.8875 19.1933 19.6285 19.8343 19.1674 20.3069C18.7063 20.7795 18.081 21.045 17.4289 21.045H4.64609C3.99404 21.045 3.36869 20.7795 2.90762 20.3069C2.44654 19.8343 2.18751 19.1933 2.1875 18.5249V8.4375Z" fill="white"/>
</svg>
